<svg width="30px" height="30px" viewBox="0 0 512 512" fill="none" xmlns="http://www.w3.org/2000/svg">
<path d="M366.292 215.99L241.417 325.781C241.25 325.927 241.084 326.073 240.938 326.229C236.896 330.25 234.667 335.614 234.667 341.333C234.667 353.093 244.23 362.666 256 362.666C261.667 362.666 267.021 360.458 271.563 355.916L381.355 231.041C385.063 226.822 384.855 220.437 380.876 216.458C376.896 212.49 370.542 212.281 366.292 215.99Z" fill="url(#paint0_linear)"/>
<path d="M256 85.333C114.833 85.333 0 200.177 0 341.333C0 367.812 4.104 394.021 12.167 419.25C13.584 423.667 17.688 426.667 22.334 426.667H489.667C494.313 426.667 498.417 423.667 499.834 419.25C507.896 394.021 512 367.813 512 341.333C512 200.177 397.167 85.333 256 85.333ZM458.667 352H489.927C489.103 370.04 486.69 387.947 481.75 405.333H30.25C25.31 387.946 22.897 370.04 22.073 352H53.333C59.229 352 64 347.229 64 341.333C64 335.437 59.229 330.666 53.333 330.666H21.873C23.454 295.747 32.553 262.801 47.821 233.458L75.145 249.239C76.833 250.208 78.666 250.666 80.478 250.666C84.145 250.666 87.749 248.76 89.707 245.333C92.665 240.229 90.915 233.708 85.811 230.76L58.548 215.014C76.871 186.475 101.15 162.198 129.69 143.876L145.436 171.156C147.394 174.573 150.999 176.489 154.665 176.489C156.478 176.489 158.311 176.031 159.998 175.062C165.102 172.114 166.852 165.593 163.894 160.489L148.117 133.157C177.462 117.887 210.41 108.787 245.332 107.206V138.666C245.332 144.562 250.103 149.333 255.999 149.333C261.895 149.333 266.666 144.562 266.666 138.666V107.206C301.588 108.787 334.536 117.887 363.881 133.157L348.104 160.489C345.146 165.593 346.896 172.114 352 175.062C353.688 176.031 355.521 176.489 357.333 176.489C361 176.489 364.604 174.572 366.562 171.156L382.308 143.876C410.848 162.198 435.127 186.475 453.45 215.014L426.187 230.76C421.083 233.708 419.333 240.229 422.291 245.333C424.249 248.76 427.854 250.666 431.52 250.666C433.332 250.666 435.166 250.208 436.853 249.239L464.177 233.458C479.445 262.802 488.544 295.747 490.125 330.666H458.665C452.769 330.666 447.998 335.437 447.998 341.333C448 347.229 452.771 352 458.667 352Z" fill="url(#paint1_linear)"/>
<defs>
<linearGradient id="paint0_linear" x1="309.335" y1="213.339" x2="309.335" y2="362.666" gradientUnits="userSpaceOnUse">
<stop stop-color="#0D6EFD"/>
<stop offset="1" stop-color="#0DFDE0"/>
</linearGradient>
<linearGradient id="paint1_linear" x1="256" y1="85.333" x2="256" y2="426.667" gradientUnits="userSpaceOnUse">
<stop stop-color="#0D6EFD"/>
<stop offset="1" stop-color="#0DFDE0"/>
</linearGradient>
</defs>
</svg>
