<svg width="30" height="30" viewBox="0 0 512 512" fill="none" xmlns="http://www.w3.org/2000/svg">
<path d="M472 432H448V280C447.997 275.582 444.412 272.003 439.994 272.006C437.387 272.008 434.944 273.28 433.448 275.416L321.448 435.416C318.916 439.037 319.799 444.025 323.42 446.556C324.763 447.495 326.361 447.999 328 448H432V472C432 476.418 435.582 480 440 480C444.418 480 448 476.418 448 472V448H472C476.418 448 480 444.418 480 440C480 435.582 476.418 432 472 432ZM432 432H343.36L432 305.376V432Z" fill="url(#paint0_linear)"/>
<path d="M328 464H233.288L321.344 360.312C321.544 360.074 321.731 359.826 321.904 359.568C338.47 335.05 332.952 301.855 309.344 284.016C280.639 263.391 240.649 269.942 220.025 298.647C212.204 309.532 207.998 322.597 208 336C208 340.418 211.582 344 216 344C220.418 344 224 340.418 224 336C223.997 309.49 245.486 287.998 271.995 287.995C282.043 287.994 291.838 291.146 300 297.008C316.537 309.679 320.388 333.015 308.8 350.328L209.904 466.824C207.045 470.193 207.459 475.241 210.828 478.1C212.273 479.326 214.105 479.999 216 480H328C332.418 480 336 476.418 336 472C336 467.582 332.418 464 328 464Z" fill="url(#paint1_linear)"/>
<path d="M216.176 424.152C216.343 419.737 212.898 416.023 208.483 415.856C208.482 415.856 208.481 415.856 208.48 415.856C104.11 411.982 20.341 328.363 16.28 224H48C52.418 224 56 220.418 56 216C56 211.582 52.418 208 48 208H16.28C20.283 103.821 103.82 20.287 208 16.288V40C208 44.418 211.582 48 216 48C220.418 48 224 44.418 224 40V16.288C326.754 20.262 409.686 101.628 415.616 204.288L384.416 173.088C381.238 170.018 376.174 170.106 373.104 173.284C370.11 176.384 370.11 181.299 373.104 184.4L417.76 229.056C418.601 230.074 419.685 230.863 420.912 231.352C421.225 231.446 421.543 231.524 421.864 231.584C422.413 231.782 422.981 231.919 423.56 231.992C423.64 231.992 423.712 231.992 423.792 231.992C423.872 231.992 423.944 231.992 424.016 231.992C424.625 231.946 425.227 231.828 425.808 231.64C426.137 231.6 426.463 231.539 426.784 231.456C427.867 231.071 428.853 230.454 429.672 229.648L474.936 184.4C478.005 181.222 477.918 176.158 474.74 173.088C471.64 170.094 466.725 170.094 463.624 173.088L431.648 205.04C425.933 90.37 331.38 0.281 216.568 0.112C216.368 0.104 216.2 0 216 0C215.8 0 215.632 0.104 215.432 0.112C96.582 0.275 0.275 96.582 0.112 215.432C0.112 215.632 0 215.8 0 216C0 216.2 0.104 216.368 0.112 216.568C0.311 332.485 92.051 427.538 207.888 431.848H208.184C212.483 431.847 216.013 428.448 216.176 424.152Z" fill="url(#paint2_linear)"/>
<path d="M323.48 108.52C320.356 105.397 315.292 105.397 312.168 108.52L226.2 194.48C219.705 191.584 212.286 191.584 205.792 194.48L165.088 153.776C161.91 150.707 156.845 150.795 153.776 153.973C150.782 157.073 150.782 161.988 153.776 165.088L194.4 205.712C188.696 217.652 193.752 231.956 205.693 237.659C214.858 242.037 225.788 240.16 232.968 232.976C240.187 225.818 242.046 214.858 237.592 205.72L323.48 119.832C326.603 116.708 326.603 111.644 323.48 108.52ZM221.658 221.654C221.657 221.655 221.657 221.655 221.656 221.656C218.492 224.681 213.508 224.681 210.344 221.656C207.219 218.532 207.219 213.467 210.342 210.342C213.466 207.217 218.531 207.217 221.656 210.34C224.781 213.464 224.781 218.53 221.658 221.654Z" fill="url(#paint3_linear)"/>
<defs>
<linearGradient id="paint0_linear" x1="400.002" y1="272.006" x2="400.002" y2="480" gradientUnits="userSpaceOnUse">
<stop stop-color="#0D6EFD"/>
<stop offset="1" stop-color="#0DFDE0"/>
</linearGradient>
<linearGradient id="paint1_linear" x1="272" y1="271.986" x2="272" y2="480" gradientUnits="userSpaceOnUse">
<stop stop-color="#0D6EFD"/>
<stop offset="1" stop-color="#0DFDE0"/>
</linearGradient>
<linearGradient id="paint2_linear" x1="238.591" y1="0" x2="238.591" y2="431.848" gradientUnits="userSpaceOnUse">
<stop stop-color="#0D6EFD"/>
<stop offset="1" stop-color="#0DFDE0"/>
</linearGradient>
<linearGradient id="paint3_linear" x1="238.676" y1="106.178" x2="238.676" y2="240" gradientUnits="userSpaceOnUse">
<stop stop-color="#0D6EFD"/>
<stop offset="1" stop-color="#0DFDE0"/>
</linearGradient>
</defs>
</svg>
