<svg width="30px" height="30px" viewBox="0 0 512 512" fill="none" xmlns="http://www.w3.org/2000/svg">
<g clip-path="url(#clip0)">
<path d="M511.013 279.65C506.416 233.412 485.759 189.82 452.844 156.904C424.716 128.777 390.287 110.702 354.061 102.665V77.2562C368.857 73.5752 379.855 60.182 379.855 44.2627C379.855 25.5144 364.603 10.2622 345.854 10.2622H273.853C255.105 10.2622 239.853 25.5144 239.853 44.2627C239.853 60.181 250.851 73.5742 265.646 77.2562V102.736C229.531 110.807 195.216 128.857 167.168 156.906C161.03 163.044 155.369 169.483 150.188 176.175C149.937 176.156 149.686 176.137 149.43 176.137H78.1682C72.6461 176.137 68.1681 180.614 68.1681 186.137C68.1681 191.66 72.6461 196.137 78.1682 196.137H136.581C129.249 208.412 123.337 221.304 118.837 234.574H10.0002C4.47807 234.574 0 239.051 0 244.574C0 250.097 4.47807 254.574 10.0002 254.574H113.186C110.304 267.225 108.65 280.1 108.223 293.012H64.001C58.4789 293.012 54.0008 297.489 54.0008 303.012C54.0008 308.535 58.4789 313.012 64.001 313.012H108.542C109.386 325.956 111.467 338.832 114.786 351.45H50.0008C44.4787 351.45 40.0006 355.927 40.0006 361.45C40.0006 366.973 44.4787 371.45 50.0008 371.45H121.168C130.978 397.401 146.309 421.725 167.168 442.583C200.114 475.529 243.751 496.192 290.038 500.765C296.644 501.417 303.255 501.74 309.857 501.74C348.879 501.74 387.406 490.447 420.097 469.158C424.725 466.144 426.034 459.949 423.02 455.321C420.006 450.693 413.81 449.384 409.182 452.398C337.624 498.996 241.79 488.921 181.31 428.441C110.347 357.478 110.347 242.013 181.31 171.049C252.272 100.087 367.737 100.087 438.701 171.049C499.101 231.45 509.231 327.202 462.787 398.725C459.779 403.357 461.096 409.551 465.727 412.558C470.361 415.567 476.553 414.25 479.56 409.617C504.375 371.402 515.545 325.246 511.013 279.65ZM259.853 44.2637C259.853 36.5436 266.133 30.2635 273.853 30.2635H345.854C353.575 30.2635 359.855 36.5436 359.855 44.2637C359.855 51.9839 353.575 58.264 345.854 58.264H344.06H275.646H273.853C266.133 58.264 259.853 51.9829 259.853 44.2637ZM285.646 99.2976V78.2643H334.06V99.2616C317.984 97.3496 301.72 97.3616 285.646 99.2976Z" fill="url(#paint0_linear)"/>
<path d="M445.777 425.507C443.137 425.507 440.567 426.577 438.708 428.437C436.838 430.297 435.777 432.877 435.777 435.507C435.777 438.137 436.838 440.717 438.708 442.577C440.567 444.447 443.138 445.507 445.777 445.507C448.407 445.507 450.977 444.447 452.847 442.577C454.707 440.717 455.777 438.137 455.777 435.507C455.777 432.877 454.708 430.297 452.847 428.437C450.977 426.577 448.406 425.507 445.777 425.507Z" fill="url(#paint1_linear)"/>
<path d="M310.006 144.611C224.466 144.611 154.874 214.202 154.874 299.743C154.874 385.283 224.466 454.874 310.006 454.874C395.545 454.874 465.137 385.283 465.137 299.743C465.137 214.202 395.545 144.611 310.006 144.611ZM310.006 434.874C235.494 434.874 174.875 374.254 174.875 299.743C174.875 225.232 235.494 164.612 310.006 164.612C384.518 164.612 445.137 225.232 445.137 299.743C445.137 374.254 384.518 434.874 310.006 434.874Z" fill="url(#paint2_linear)"/>
<path d="M373.263 222.344L323.732 271.874C319.59 269.826 314.931 268.669 310.006 268.669C305.08 268.669 300.422 269.826 296.28 271.874L274.112 249.706C270.206 245.801 263.876 245.801 259.969 249.706C256.064 253.611 256.064 259.943 259.969 263.848L282.136 286.016C280.087 290.158 278.931 294.817 278.931 299.742C278.931 316.876 292.871 330.817 310.006 330.817C327.141 330.817 341.08 316.876 341.08 299.742C341.08 294.817 339.923 290.158 337.875 286.016L385.952 237.939L387.405 236.486C391.31 232.581 391.31 226.249 387.405 222.344C383.5 218.439 377.17 218.439 373.263 222.344ZM310.006 310.817C303.9 310.817 298.932 305.849 298.932 299.743C298.932 293.637 303.9 288.669 310.006 288.669C316.112 288.669 321.08 293.637 321.08 299.743C321.08 305.849 316.112 310.817 310.006 310.817Z" fill="url(#paint3_linear)"/>
<path d="M416.926 289.865H407.661C402.139 289.865 397.661 294.342 397.661 299.865C397.661 305.388 402.139 309.865 407.661 309.865H416.926C422.448 309.865 426.926 305.388 426.926 299.865C426.926 294.342 422.448 289.865 416.926 289.865Z" fill="url(#paint4_linear)"/>
<path d="M212.349 289.621H203.085C197.563 289.621 193.085 294.098 193.085 299.621C193.085 305.144 197.563 309.621 203.085 309.621H212.349C217.871 309.621 222.349 305.144 222.349 299.621C222.349 294.098 217.871 289.621 212.349 289.621Z" fill="url(#paint5_linear)"/>
<path d="M310.128 212.086C315.65 212.086 320.128 207.609 320.128 202.086V192.822C320.128 187.299 315.65 182.822 310.128 182.822C304.606 182.822 300.128 187.299 300.128 192.822V202.086C300.128 207.609 304.606 212.086 310.128 212.086Z" fill="url(#paint6_linear)"/>
<path d="M309.884 387.399C304.362 387.399 299.884 391.876 299.884 397.399V406.663C299.884 412.186 304.362 416.663 309.884 416.663C315.406 416.663 319.884 412.186 319.884 406.663V397.399C319.884 391.876 315.406 387.399 309.884 387.399Z" fill="url(#paint7_linear)"/>
<path d="M10 351.446C7.37 351.446 4.79 352.516 2.93 354.376C1.07 356.236 0 358.816 0 361.446C0 364.086 1.069 366.656 2.93 368.516C4.791 370.376 7.37 371.446 10 371.446C12.63 371.446 15.21 370.376 17.069 368.516C18.929 366.656 20 364.076 20 361.446C20 358.816 18.93 356.236 17.069 354.376C15.21 352.516 12.63 351.446 10 351.446Z" fill="url(#paint8_linear)"/>
</g>
<defs>
<linearGradient id="paint0_linear" x1="256" y1="10.2622" x2="256" y2="501.74" gradientUnits="userSpaceOnUse">
<stop stop-color="#0D6EFD"/>
<stop offset="1" stop-color="#0DFDE0"/>
</linearGradient>
<linearGradient id="paint1_linear" x1="445.777" y1="425.507" x2="445.777" y2="445.507" gradientUnits="userSpaceOnUse">
<stop stop-color="#0D6EFD"/>
<stop offset="1" stop-color="#0DFDE0"/>
</linearGradient>
<linearGradient id="paint2_linear" x1="310.006" y1="144.611" x2="310.006" y2="454.874" gradientUnits="userSpaceOnUse">
<stop stop-color="#0D6EFD"/>
<stop offset="1" stop-color="#0DFDE0"/>
</linearGradient>
<linearGradient id="paint3_linear" x1="323.687" y1="219.415" x2="323.687" y2="330.817" gradientUnits="userSpaceOnUse">
<stop stop-color="#0D6EFD"/>
<stop offset="1" stop-color="#0DFDE0"/>
</linearGradient>
<linearGradient id="paint4_linear" x1="412.294" y1="289.865" x2="412.294" y2="309.865" gradientUnits="userSpaceOnUse">
<stop stop-color="#0D6EFD"/>
<stop offset="1" stop-color="#0DFDE0"/>
</linearGradient>
<linearGradient id="paint5_linear" x1="207.717" y1="289.621" x2="207.717" y2="309.621" gradientUnits="userSpaceOnUse">
<stop stop-color="#0D6EFD"/>
<stop offset="1" stop-color="#0DFDE0"/>
</linearGradient>
<linearGradient id="paint6_linear" x1="310.128" y1="182.822" x2="310.128" y2="212.086" gradientUnits="userSpaceOnUse">
<stop stop-color="#0D6EFD"/>
<stop offset="1" stop-color="#0DFDE0"/>
</linearGradient>
<linearGradient id="paint7_linear" x1="309.884" y1="387.399" x2="309.884" y2="416.663" gradientUnits="userSpaceOnUse">
<stop stop-color="#0D6EFD"/>
<stop offset="1" stop-color="#0DFDE0"/>
</linearGradient>
<linearGradient id="paint8_linear" x1="10" y1="351.446" x2="10" y2="371.446" gradientUnits="userSpaceOnUse">
<stop stop-color="#0D6EFD"/>
<stop offset="1" stop-color="#0DFDE0"/>
</linearGradient>
<clipPath id="clip0">
<rect width="512" height="512" fill="white"/>
</clipPath>
</defs>
</svg>
