<svg width="30px" height="30px" viewBox="0 0 512 512" fill="none" xmlns="http://www.w3.org/2000/svg">
<g clip-path="url(#clip0)">
<path d="M215.889 251.079C209.498 251.079 204.316 256.26 204.316 262.652C204.316 269.043 209.497 274.224 215.889 274.224C222.28 274.224 227.461 269.043 227.461 262.652C227.461 256.26 222.28 251.079 215.889 251.079V251.079Z" fill="url(#paint0_linear)"/>
<path d="M185.851 286.342H136.842C132.699 286.342 129.342 289.7 129.342 293.842C129.342 297.984 132.7 301.342 136.842 301.342H185.851C189.994 301.342 193.351 297.984 193.351 293.842C193.352 289.7 189.994 286.342 185.851 286.342Z" fill="url(#paint1_linear)"/>
<path d="M106.805 251.079C100.414 251.079 95.2319 256.26 95.2319 262.652C95.2319 269.043 100.413 274.224 106.805 274.224C113.196 274.224 118.377 269.043 118.377 262.652C118.377 256.26 113.196 251.079 106.805 251.079V251.079Z" fill="url(#paint2_linear)"/>
<path d="M371.865 242.981C359.391 242.981 349.243 253.13 349.243 265.604C349.243 278.078 359.391 288.226 371.865 288.226C384.339 288.226 394.488 278.078 394.488 265.604C394.488 253.13 384.339 242.981 371.865 242.981ZM371.865 273.226C367.663 273.226 364.244 269.807 364.244 265.604C364.244 261.401 367.663 257.982 371.865 257.982C376.068 257.982 379.487 261.402 379.487 265.604C379.487 269.807 376.068 273.226 371.865 273.226Z" fill="url(#paint3_linear)"/>
<path d="M471.312 89.5318L394.628 12.8478C377.496 -4.28422 349.621 -4.28422 332.488 12.8478L298.232 47.1038L263.975 12.8468C246.843 -4.28321 218.967 -4.28522 201.836 12.8468L146.017 68.6658H75.857C49.38 68.6658 27.839 90.2068 27.839 116.684V362.267C27.839 390.855 51.097 414.112 79.684 414.112H169.646V449.78H161.347C144.193 449.78 130.237 463.736 130.237 480.889C130.237 498.043 144.193 511.998 161.347 511.998H200.755C217.909 511.998 231.865 498.042 231.865 480.889V414.111H279.524V449.779H271.224C254.071 449.779 240.115 463.735 240.115 480.888C240.115 498.042 254.071 511.997 271.224 511.997H310.633C327.787 511.997 341.743 498.041 341.743 480.888V414.11H419.584C448.171 414.11 471.429 390.853 471.429 362.265V304.812C477.257 299.153 480.889 291.243 480.889 282.497V248.705C480.889 239.959 477.257 232.049 471.429 226.39V201.545C471.429 187.722 465.98 175.155 457.131 165.851L471.314 151.669C488.444 134.54 488.444 106.664 471.312 89.5318V89.5318ZM340.819 89.6918L363.559 66.9518L417.209 120.602L388.108 149.703H342.512C357.793 132.433 357.07 106.093 340.819 89.6918V89.6918ZM212.444 23.4558C223.726 12.1728 242.087 12.1728 253.368 23.4558C261.953 32.0408 321.392 91.4798 330.052 100.14C341.336 111.423 341.336 129.782 330.052 141.065L321.413 149.704H278.668L302.466 125.906C305.393 122.979 305.394 118.227 302.466 115.299L238.21 51.0418C235.28 48.1128 230.532 48.1128 227.602 51.0418L128.941 149.703H86.197L154.429 81.4708C154.429 81.4708 154.43 81.4698 154.43 81.4688L212.444 23.4558ZM257.455 149.703H150.156L232.906 66.9518L286.557 120.602L257.455 149.703ZM75.857 83.6678H131.017L66.376 148.309C52.627 144.214 42.84 131.397 42.84 116.686C42.84 98.4798 57.651 83.6678 75.857 83.6678V83.6678ZM200.754 496.999H161.346C152.464 496.999 145.237 489.773 145.237 480.89C145.237 472.008 152.464 464.781 161.346 464.781H177.145C181.288 464.781 184.645 461.423 184.645 457.281V435.145H216.862V480.89C216.863 489.773 209.637 496.999 200.754 496.999ZM310.632 496.999H271.223C262.341 496.999 255.115 489.773 255.115 480.89C255.115 472.008 262.341 464.781 271.223 464.781H287.023C291.166 464.781 294.523 461.423 294.523 457.281V435.145H326.74V480.89C326.741 489.773 319.514 496.999 310.632 496.999ZM449.765 298.622H362.132C343.926 298.622 329.115 283.81 329.115 265.605C329.115 247.4 343.926 232.588 362.132 232.588H449.765C458.582 232.588 465.887 239.763 465.887 248.709V282.5C465.887 291.329 458.702 298.622 449.765 298.622ZM449.765 217.586H362.132C335.655 217.586 314.114 239.127 314.114 265.604C314.114 292.081 335.655 313.622 362.132 313.622H449.765C452.023 313.622 454.596 313.31 456.426 312.912V362.268C456.426 382.584 439.898 399.112 419.582 399.112C318.864 399.112 191.15 399.112 79.684 399.112C59.368 399.112 42.84 382.583 42.84 362.268V151.593C51.757 160.023 63.618 164.703 75.857 164.703H419.583C439.806 164.703 456.427 181.143 456.427 201.547V218.295C454.565 217.894 452.11 217.586 449.765 217.586V217.586ZM460.704 141.065L445.268 156.501C437.773 152.202 428.669 149.703 419.582 149.703H409.321L433.119 125.905C436.048 122.976 436.048 118.227 433.119 115.298L368.863 51.0418C365.934 48.1128 361.186 48.1128 358.255 51.0418L330.212 79.0838L308.84 57.7118L343.095 23.4558C354.379 12.1728 372.739 12.1728 384.02 23.4558L460.704 100.14C471.988 111.422 471.988 129.782 460.704 141.065V141.065Z" fill="url(#paint4_linear)"/>
</g>
<defs>
<linearGradient id="paint0_linear" x1="215.888" y1="251.079" x2="215.888" y2="274.224" gradientUnits="userSpaceOnUse">
<stop stop-color="#0D6EFD"/>
<stop offset="1" stop-color="#0DFDE0"/>
</linearGradient>
<linearGradient id="paint1_linear" x1="161.347" y1="286.342" x2="161.347" y2="301.342" gradientUnits="userSpaceOnUse">
<stop stop-color="#0D6EFD"/>
<stop offset="1" stop-color="#0DFDE0"/>
</linearGradient>
<linearGradient id="paint2_linear" x1="106.804" y1="251.079" x2="106.804" y2="274.224" gradientUnits="userSpaceOnUse">
<stop stop-color="#0D6EFD"/>
<stop offset="1" stop-color="#0DFDE0"/>
</linearGradient>
<linearGradient id="paint3_linear" x1="371.865" y1="242.981" x2="371.865" y2="288.226" gradientUnits="userSpaceOnUse">
<stop stop-color="#0D6EFD"/>
<stop offset="1" stop-color="#0DFDE0"/>
</linearGradient>
<linearGradient id="paint4_linear" x1="256" y1="-0.00146484" x2="256" y2="511.998" gradientUnits="userSpaceOnUse">
<stop stop-color="#0D6EFD"/>
<stop offset="1" stop-color="#0DFDE0"/>
</linearGradient>
<clipPath id="clip0">
<rect width="512" height="512" fill="white"/>
</clipPath>
</defs>
</svg>
