<svg width="30" height="30" viewBox="0 0 512 512" fill="none" xmlns="http://www.w3.org/2000/svg">
<path d="M143.043 305.439C141.206 302.564 138.029 300.824 134.617 300.824C131.205 300.824 128.028 302.564 126.191 305.439L67.921 396.62C65.954 399.698 65.822 403.604 67.577 406.808C69.332 410.012 72.694 412.004 76.348 412.004H98.218V490.338C98.218 495.86 102.695 500.338 108.218 500.338H161.016C166.539 500.338 171.016 495.86 171.016 490.338V412.004H192.886C196.539 412.004 199.902 410.012 201.657 406.808C203.412 403.604 203.28 399.698 201.313 396.62L143.043 305.439ZM161.016 392.005C155.493 392.005 151.016 396.483 151.016 402.005V480.339H118.218V402.005C118.218 396.483 113.741 392.005 108.218 392.005H94.606L134.617 329.395L174.628 392.005H161.016Z" fill="url(#paint0_linear)"/>
<path d="M368.956 206.561C370.794 209.436 373.971 211.176 377.383 211.176C380.795 211.176 383.972 209.436 385.81 206.561L444.08 115.38C446.047 112.302 446.179 108.396 444.424 105.192C442.669 101.988 439.307 99.9961 435.653 99.9961H413.783V21.6611C413.783 16.1391 409.305 11.6611 403.783 11.6611H350.984C345.462 11.6611 340.984 16.1391 340.984 21.6611V99.9951H319.114C315.461 99.9951 312.098 101.987 310.343 105.191C308.588 108.395 308.72 112.301 310.687 115.379L368.956 206.561ZM350.983 119.995C356.505 119.995 360.983 115.517 360.983 109.995V31.6611H393.782V109.995C393.782 115.517 398.26 119.995 403.782 119.995H417.394L377.382 182.605L337.37 119.995H350.983Z" fill="url(#paint1_linear)"/>
<path d="M392.086 369.477C389.833 368.68 387.713 367.922 385.724 367.203V327.902C391.53 329.273 395.529 332.085 397.385 334.73C400.558 339.25 406.793 340.341 411.316 337.17C415.837 333.997 416.929 327.761 413.756 323.239C408.418 315.633 398.586 309.33 385.724 307.537V303.951C385.724 298.429 381.246 293.951 375.724 293.951C370.202 293.951 365.724 298.429 365.724 303.951V308.335C363.681 308.754 361.598 309.279 359.476 309.918C345.734 314.059 335.358 327.427 334.246 342.428C333.151 357.198 341.036 370.042 355.34 376.787C357.565 377.837 361.145 379.316 365.725 381.09V427.613C358.946 425.871 352.573 422.658 348.55 417.663C345.084 413.363 338.79 412.685 334.488 416.148C330.187 419.613 329.509 425.908 332.973 430.21C341.298 440.544 353.741 445.922 365.724 448.075V450.818C365.724 456.34 370.202 460.818 375.724 460.818C381.246 460.818 385.724 456.34 385.724 450.818V448.854C410.945 446.138 421.891 430.078 423.708 415.767C426.221 395.98 413.217 376.945 392.086 369.477V369.477ZM363.868 358.696C355.264 354.638 353.856 348.413 354.19 343.905C354.696 337.085 359.345 330.844 365.245 329.067C365.405 329.019 365.564 328.972 365.724 328.925V359.523C364.963 359.197 364.345 358.921 363.868 358.696ZM403.868 413.246C402.826 421.448 396.273 426.97 385.723 428.679V388.441C399.707 393.519 404.937 404.829 403.868 413.246Z" fill="url(#paint2_linear)"/>
<path d="M377.383 242.766C303.155 242.766 242.766 303.155 242.766 377.383C242.766 451.611 303.155 512 377.383 512C451.611 512 512 451.611 512 377.383C512 303.155 451.611 242.766 377.383 242.766V242.766ZM377.383 492C314.183 492 262.766 440.583 262.766 377.383C262.766 314.183 314.183 262.766 377.383 262.766C440.583 262.766 492 314.183 492 377.383C492 440.583 440.583 492 377.383 492Z" fill="url(#paint3_linear)"/>
<path d="M177.292 185.614L121.28 185.119C130.912 171.428 133.343 162.334 131.832 146.753H148.496C154.019 146.753 158.496 142.275 158.496 136.753C158.496 131.231 154.019 126.753 148.496 126.753H126.912C123.299 121.274 117.045 109.867 117.085 100.608C117.085 100.594 117.085 100.58 117.085 100.566C117.085 100.554 117.085 100.541 117.085 100.529C117.064 94.567 119.666 90.194 125.042 87.158C133.202 82.551 146.364 82.467 153.783 86.978C159.686 90.567 164.143 95.58 165.414 100.06C166.921 105.373 172.451 108.458 177.764 106.951C183.077 105.443 186.162 99.914 184.655 94.601C181.983 85.185 174.518 76.177 164.174 69.888C150.44 61.538 129.847 61.478 115.209 69.742C103.498 76.355 97.0651 87.283 97.0861 100.52V100.521V100.551V100.6V100.601C97.0641 110.052 100.365 119.414 103.924 126.751H94.9351C89.4121 126.751 84.9351 131.229 84.9351 136.751C84.9351 142.273 89.4121 146.751 94.9351 146.751H111.719L111.777 147.253C113.11 159.176 112.409 163.628 102.859 176.456L93.1101 188.713C90.7301 191.705 90.2641 195.792 91.9101 199.242C93.5561 202.692 97.0251 204.903 100.848 204.937L177.115 205.612H177.205C182.686 205.612 187.154 201.193 187.203 195.701C187.251 190.18 182.814 185.663 177.292 185.614V185.614Z" fill="url(#paint4_linear)"/>
<path d="M134.617 0C60.389 0 0 60.389 0 134.617C0 208.845 60.389 269.234 134.617 269.234C208.845 269.234 269.234 208.845 269.234 134.617C269.234 60.389 208.845 0 134.617 0ZM134.617 249.234C71.417 249.234 20 197.817 20 134.617C20 71.417 71.417 20 134.617 20C197.817 20 249.234 71.417 249.234 134.617C249.234 197.817 197.817 249.234 134.617 249.234V249.234Z" fill="url(#paint5_linear)"/>
<defs>
<linearGradient id="paint0_linear" x1="134.617" y1="300.824" x2="134.617" y2="500.338" gradientUnits="userSpaceOnUse">
<stop stop-color="#0D6EFD"/>
<stop offset="1" stop-color="#0DFDE0"/>
</linearGradient>
<linearGradient id="paint1_linear" x1="377.383" y1="11.6611" x2="377.383" y2="211.176" gradientUnits="userSpaceOnUse">
<stop stop-color="#0D6EFD"/>
<stop offset="1" stop-color="#0DFDE0"/>
</linearGradient>
<linearGradient id="paint2_linear" x1="377.389" y1="293.951" x2="377.389" y2="460.818" gradientUnits="userSpaceOnUse">
<stop stop-color="#0D6EFD"/>
<stop offset="1" stop-color="#0DFDE0"/>
</linearGradient>
<linearGradient id="paint3_linear" x1="377.383" y1="242.766" x2="377.383" y2="512" gradientUnits="userSpaceOnUse">
<stop stop-color="#0D6EFD"/>
<stop offset="1" stop-color="#0DFDE0"/>
</linearGradient>
<linearGradient id="paint4_linear" x1="136.069" y1="63.5845" x2="136.069" y2="205.612" gradientUnits="userSpaceOnUse">
<stop stop-color="#0D6EFD"/>
<stop offset="1" stop-color="#0DFDE0"/>
</linearGradient>
<linearGradient id="paint5_linear" x1="134.617" y1="0" x2="134.617" y2="269.234" gradientUnits="userSpaceOnUse">
<stop stop-color="#0D6EFD"/>
<stop offset="1" stop-color="#0DFDE0"/>
</linearGradient>
</defs>
</svg>
