<svg width="427" height="455" viewBox="0 0 427 455" fill="none" xmlns="http://www.w3.org/2000/svg">
<ellipse cx="213.5" cy="250" rx="213.5" ry="205" fill="url(#paint0_linear)"/>
<path d="M369.706 69.0942L315.526 8.61744C313.036 5.84037 309.6 4.2407 305.951 4.13961L302.474 4.04327L300.341 81.0137L373.313 83.0354L373.415 79.3672C373.52 75.5789 372.196 71.8713 369.706 69.0942ZM281.965 85.319L284.231 3.53786L170.212 0.379057C162.63 0.168996 156.352 6.43425 156.13 14.432L148.4 293.45C148.178 301.448 154.1 308.051 161.682 308.261L353.234 313.568C360.816 313.778 367.094 307.513 367.316 299.515L372.78 102.278L295.248 100.13C287.722 99.9215 281.745 93.2566 281.965 85.319ZM191.816 44.3067C191.89 41.6488 193.991 39.5526 196.51 39.6224L242.118 40.8859C244.638 40.9557 246.619 43.165 246.545 45.8229L246.279 55.4442C246.205 58.1021 244.105 60.1984 241.585 60.1285L195.977 58.865C193.457 58.7952 191.476 56.5859 191.55 53.928L191.816 44.3067ZM190.484 92.4132L190.75 82.7919C190.824 80.1341 192.924 78.0378 195.444 78.1076L241.052 79.3712C243.571 79.441 245.553 81.6503 245.479 84.3082L245.213 93.9295C245.139 96.5874 243.038 98.6836 240.519 98.6138L194.911 97.3503C192.391 97.2804 190.41 95.0711 190.484 92.4132ZM268.181 253.367L267.779 267.871C267.705 270.529 265.605 272.625 263.085 272.555L253.964 272.303C251.444 272.233 249.462 270.024 249.536 267.366L249.941 252.759C243.514 252.232 237.32 249.69 232.246 245.439C230.071 243.615 230.055 240.1 232.123 238.13L239.009 231.574C240.632 230.031 242.983 230.023 244.796 231.295C246.962 232.812 249.443 233.663 252.043 233.735L268.068 234.179C271.773 234.281 274.894 230.805 275.015 226.434C275.114 222.856 273.143 219.648 270.227 218.64L244.798 209.811C234.293 206.162 227.184 195.229 227.517 183.221C227.926 168.476 239.118 156.798 252.594 156.793L252.996 142.289C253.069 139.631 255.17 137.534 257.69 137.604L266.811 137.857C269.331 137.927 271.312 140.136 271.239 142.794L270.834 157.4C277.261 157.927 283.455 160.464 288.529 164.721C290.703 166.544 290.72 170.059 288.651 172.03L281.766 178.585C280.143 180.129 277.792 180.136 275.979 178.864C273.813 177.342 271.332 176.497 268.732 176.425L252.707 175.981C249.001 175.878 245.881 179.355 245.76 183.726C245.661 187.304 247.632 190.512 250.548 191.52L275.977 200.348C286.482 203.997 293.59 214.93 293.258 226.939C292.849 241.69 281.657 253.361 268.181 253.367Z" fill="#691016"/>
<defs>
<linearGradient id="paint0_linear" x1="284.5" y1="67" x2="70.5" y2="378" gradientUnits="userSpaceOnUse">
<stop stop-color="#E93333"/>
<stop offset="1" stop-color="#73191B" stop-opacity="0.98"/>
</linearGradient>
</defs>
</svg>
